<svg xmlns="http://www.w3.org/2000/svg" viewBox="0 0 702 1001" xml:space="preserve"><path fill="#D10D0D" d="M698.1 454.7v19.7c-4.9 7.2-7.1 15.4-8.7 23.9-2.1 11.1-2.9 22.7-8.4 32.8-5.4 9.9-8.3 20.7-12.3 31.1-1.8 4.8-2.8 9.7-3.3 14.8-1.3 12.7-2.8 25.5-4.6 38.1-1.3 9.3-2.4 18.5-.8 27.9 1.5 8.6 1.1 17.3 0 26-.5 4.1-1.1 8.2-1.2 12.2-.4 17.9-.4 35.8-.8 53.7-1 50.2-1.5 100.5-2.2 150.7l-1.2 97c-.1 4.5-.5 8.9-4 12.3h-5.9c-2-3.4-2.6-7.1-1.9-10.9 1.6-8.5 1.1-17 .5-25.6-1.1-15.1-1.8-30.2-1.7-45.3.4-37.5.7-74.9 1.2-112.4.6-46.1 2.1-92.3-.4-138.4-.1-2.5.3-5-1.4-8.3-1.6 6.4-2.9 11.8-4.3 17.2-.7 2.7-2.4 4.7-5.4 5.1-2.6.3-4.7-1-5.7-3.2-2.1-4.3-3.4-2.6-5.5 0-15.3 19.5-29.8 39.7-50 54.8-3 2.3-6.3 4.3-8.9 7-9.7 10.2-20.4 19-33.2 25.2-2.5 1.2-3.3 3.2-3 6.1 1.4 17.3 6.1 34.1 7.9 51.5 1.2 11.6 1.8 22.8.4 34.2-1.2 9.4-3.9 18.3-10 25.9-9 11.2-22.7 12.2-33.2 2.5-6.5-6-9.3-13.8-11.2-22.1-2.7-12.3-3.3-24.7-2.4-37.2.7-10 1.7-20 2.4-30 .3-5.1-.8-6-5.7-4.7-4.4 1.2-8.8 2.6-13.2 4.1-38.5 13.6-78.1 20.6-118.9 19.1-12.6-.5-25.3-.7-37.9-.7-8.7 0-17.4-.9-25.9-2.6-28.6-5.6-56.1-14.9-83.1-26-5-2.1-5-1.9-4.9 3.5.3 19.7 3 39.3 1.2 59-1.4 15.1-6.2 28.6-18.7 38.3-5.5 4.3-7.5 9.6-7.3 16.7.7 25.8 1.9 51.7-2.7 77.4-.5 2.6-.5 5.9-4 5.7-3.3-.2-2.8-3.5-3.1-5.9-.1-.8 0-1.6-.1-2.5-.1-3.1.4-6.4-2.3-8.7-3.7-3.2-4-7.2-4-11.6.2-17.1.5-34.1.2-51.2-.2-11.1-2.7-21.7-9.7-30.9-7.5-9.9-9-21.6-8.2-33.7.8-11.7 3.5-23.1 6.8-34.3 4.2-14.3 6.2-28.9 7.4-43.6.4-5.1-1.2-8.4-5.3-11.7-30.7-24-56.7-52.3-77.8-85.1-7.2-11.2-11.1-24.1-17.9-35.6-15-25.6-25.5-52.8-30.9-82.1-3-16.2-5.2-32.4-7-48.7v-49.3c.3-2.1.6-4.2.8-6.3 2-23.2 5.9-45.9 16.5-67 5.5-11 9.5-22.7 12.6-34.7 5.3-20.9 14.3-40.2 25.3-58.6 6.6-11.1 6.5-11-1.3-21.3-13.5-17.9-26.7-36-38.4-55-3.9-6.2-6.7-12.8-6.7-20.3 0-6.5 3.1-11.3 8.8-14.3 6-3 11.8-2.3 17.1 1.8 4.3 3.3 7.1 7.8 8.4 13 2.2 8.7 6 16.7 10.8 24.2 5.9 9.5 12 18.8 18.2 28.1 5.9 8.8 6 8.8 12.7.9.5-.6 1.1-1.2 1.6-1.8 12.2-13.5 23.8-27.6 38.1-39.1 4.8-3.8 6.2-8.5 4.2-14.4-1.4-4-2.2-8.3-2.9-12.5-2-12.9.9-25.9-.6-38.8-.6-5-.5-10.2.1-15.3 3.3-24.9 4.1-50 6.8-74.9 1.4-12.9 4.6-25 17.7-31.5h10.8c12.5 8.4 17.8 23.9 10.7 36-7 12.1-6.5 25.6-9.3 38.4-1.3 6.2-1.5 12.7-3.5 18.8-1.1 3.3-1.7 6.6-2 10.1-1.2 16.4-1.8 32.8-1.8 49.2 0 2.2-.9 5 1.6 6.3 2.6 1.4 4.7-.7 6.7-1.9 14.3-8.8 29-16.7 44.2-23.9 19.1-9 39.7-12.5 60.1-17 14.1-3.1 27.9-7.4 42.6-7.1 14.5.3 28.8 1.3 43.2 3.2 52.1 6.8 100.7 23.2 144.3 53.1 4.4 3 4.8 2.7 5.3-2.6 2.7-29.7-1-59-4.6-88.4-1.6-13.4-6.4-26.2-8.7-39.4-1.1-6.2-1.4-12.4 1.1-18.4 4.9-11.8 18.6-14.3 27.4-5 4.7 5 6.2 11.2 5.7 17.8-1.4 20.3 2.3 40.3 4.5 60.3 3.4 31.6 5.1 63.2-.1 94.8-.5 3.1.3 5.3 2.6 7.4 15.6 13.7 29.4 29.2 42.3 45.3 3.8 4.7 4.1 4.7 7.9.1 14.5-17.5 25.9-36.7 34.5-57.7 2-4.9 3.8-9.9 7-14.1 6.2-8.1 16.9-7.5 22.2 1.3 2.1 3.5 2.7 7.3 2.4 11.4-.5 6.2-3.1 11.8-6.3 17-13.9 22.5-27.1 45.5-44.5 65.6-2.6 3-2.2 5.2-.2 8.2 5.1 7.7 10.1 15.4 14.8 23.3 24.8 41.4 45.7 84.7 64.3 129.2 1.4 3.4 3.2 6.5 5.6 9.2 4.7 4.9 8.7 10.1 11.6 16.1zm-403.2 65.4c-1.6 2.8-.8 5.7-.5 8.5 1 11.7 1 23.3-.5 34.9-.4 3.1-1.8 6-5.4 6.1-3.2 0-3.7-2.9-3.8-5.4-1-14.8-1.2-29.5-.3-44.3.5-8.4.1-16.8-.8-25.1-.8-7.2-4.6-10.7-11.8-11.7-14.6-2.1-27.4 2.7-37.6 12.3-18.9 17.9-33.4 39.1-38.5 65.2-6.8 35-11.5 70.3-11.1 106.2.2 19.4 1.3 38.7 1.6 58.1.2 11.4 3.6 18.7 14.6 24.4 32.5 16.9 66.5 28.3 103 31.2 29.8 2.4 59.8 1.7 89.6-1 14.4-1.3 28.8-3.4 42.2-9.1 12.8-5.5 25.4-11.8 38.8-15.7 6.3-1.9 8.3-5.6 8.5-11.9.9-23.6 1.3-47.3 1-71-.4-29.7-1.7-59.4-5.8-88.9-3.8-26.8-12.9-51.4-28.9-73.5-10.8-14.9-26.4-21.9-43.1-26.6-11.8-3.3-19.2 2.6-20.3 14.8-.6 6-1 12.1-1 18.2-.1 15.4 0 30.9 0 46.3 0 2.3.5 4.9-1.2 6.6-2.8 2.8-2.7 6.2-2.7 9.6-.1 35 0 70 .9 105 .1 2.9.3 6-1.1 8.7-1 1.9-2.4 3.2-4.7 2.9-2.1-.2-3.2-1.8-3.5-3.7-.4-2.6-.6-5.2-.6-7.8V548.9c0-.8-.1-1.9-1.3-1.5-5.2 1.7-5.7-2.6-6.9-5.6-2.7-6.9-2.3-14.2-2.6-21.4-.1-1.7.2-4.2-2.1-4.4-2.8-.3-2.8 2.4-2.9 4.2-.6 9.8-1.4 19.7-1.6 29.5-.1 7.1-2.4 14-.9 21.1.5 2.6 1.3 5.8-2 6.8-3.4 1-4.2-2.5-5.2-4.7-1.6-3.7-2.1-7.6-1.7-11.6.4-3.6.8-7.2 1-10.8.1-1.6 1-3.6-.8-4.9-.3.1-.5.1-.6.2-.2.2-.5.4-.7.7-2.3 3-2.6 10.6-9.2 4.2-.1-.1-.7 0-.9.1-5 2.9-5.1-1.4-5.7-4.2-.8-3.4-1.1-7-1.7-10.9-1.9 1.6-1.2 3.2-1.2 4.6-.4 8.7-.6 17.4-1 26.1-.1 3-.9 5.9-2.4 8.5-.8 1.4-1.8 3-3.8 2.4-1.7-.5-1.7-2.2-1.7-3.7-1-19-3-38-2.6-57 0-2.1.6-5.8-1.9-5.9-2.6-.1-2.1 3.5-2.4 5.6-1.2 8.1-2.3 16.3-3.5 24.4-.4 2.3-1.4 4.7-4.3 4.4-2.8-.2-3-2.7-3.2-4.8-.4-5.2-.7-10.5-1.1-15.7-.5-1.5.2-3.3-2.1-4.5zm-.7-355.3c-2.2 0-5.2-.1-8.2 0-3.1.1-6.3 0-9.3.5-37.7 6.2-72.6 19.2-103.1 42.9-3.5 2.7-4.7 5.7-3.1 9.8 9.6 23.5 16.9 48 30.2 70 5.6 9.3 11.8 17.8 19.9 24.8 9.2 8 18.6 15.7 28.9 22.1 6.4 4 12.9 7.9 20.4 9.7 11 2.6 15.2-.4 16.9-11.5 1.8-12.5 4.3-24.9 4-37.7-.2-7.8 5.7-13.6 13.3-14.8 7-1.1 12.7 2.4 15.9 9.7 1.5 3.3 2.2 6.8 2.6 10.5 1.1 9.3.4 18.7.9 28.1.5 8 5.3 13.2 12.3 13.2 6.2 0 10-4.8 10-13.2 0-5.7-.6-11.5-.8-17.2-.2-8.7.8-17.2 6.8-24.1 4.4-5 10.1-7.6 16.8-5.7 6.5 1.8 9.2 7 10.2 13.2.8 5.1 1 10.1.9 15.2-.2 8.6 1.4 16.9 3.4 25.3 2.4 10.3 8.2 11.2 15.6 8.3 24.5-9.6 46.9-22.9 62.5-44.7 15.3-21.3 25.6-45.4 35.6-69.6 1.9-4.6.7-7-3.1-9.8-35.5-25.7-74.6-43.3-117.6-52-17.7-3.6-35.5-6.7-53.8-4.6-9 1.2-18.2 2.2-28.1 1.6zM225 417.9c0-.4.1-.9.1-1.3-12.3-7-24.1-14.6-35.5-23-34-24.9-63.5-54.5-90.6-86.6-6.7-8-6.8-8.1-10.9 1.7-2.9 6.8-4.8 14-8.1 20.6-12.7 26.2-21.4 53.8-28 81.9-6.8 28.5-6.3 57.7-2.9 86.7 1.4 11.9 4.9 22.9 11.8 33 10.2 15 12.3 31.4 5 48.5-.8 1.8-2.2 3.6-1.7 5.6 1.6 6.7 2.2 13.6 5.3 19.9 7.2 14.8 14 29.7 23.3 43.4 9 13.3 17 27.4 28.9 38.5 4.9 4.5 7 4.3 10.2-1.4 5.4-9.6 10.6-19.3 16.2-28.8 2.6-4.4 3.9-8.9 3.7-14-1-26.8 2.1-53.2 7.8-79.2 8.5-39 24.2-74.3 56-100.4 1.8-1.5 3.5-3.2 2.8-5.9-.8-3.1-3.5-3.8-6.1-4.1-17.1-2.2-34.2-4.3-51.5-5-11.8-.5-21.6 3.1-28 13.8-4.6 7.7-11.6 11-20.5 11.7-12.3 1-14.4 3.6-14 15.8v1c-.1 1.7-.7 3.2-2.4 4-1.9.9-3.5.1-5-1.2-2.3-2.1-2.7-4.9-2.4-7.7.5-5.3-1.7-9.2-5.2-13.1-13-14.5-16.5-31.7-11-50.1 6.6-21.9 28.2-30.6 48.5-20.1 3.1 1.6 6.1 3.2 9 5.1 9.5 6.3 20 8.7 31.3 8.8 4.1 0 8.2.3 12.3 1.1 13.9 2.5 27.8 2.3 41.8 1.8 3.4-.1 6.6-.6 9.8-1zm354.6 100.7c.1-8.5-1.7-16.7-5.7-24.2-3.3-6.2-7-12.3-10.6-18.3-4.3-7.3-8-14.7-7.4-23.6.2-3.3-1.5-4.8-4.8-4.7-13.4.5-26.9.7-40.3 1.6-17.8 1.2-35.7 2.9-53.5 4.4-2.6.2-5.7-.1-6.8 2.9-1.1 3.1 1.3 5.3 3.4 7.1 22.8 19.3 36.9 44.1 46.2 72 11.9 35.6 15.2 72.5 17.5 109.6 1.6 26.2 2.6 52.5 3.9 78.7.1 1.4-.5 3.3 1.1 4 1.7.8 2.6-.9 3.7-1.8 13.7-12 27.3-24.1 39.7-37.5 4.1-4.4 5.2-8.8 4-14.4-1.2-6-2-12-1.1-18.1 1-6.9 1-13.8.4-20.6-1.5-17.2-1.7-34.4-1.6-51.6.1-16.1 3.6-31.6 8.6-46.8 2.2-6 3.3-12.2 3.3-18.7zm-31.1-103.5c22 0 38.6-3.5 53.9-11.9 11-6.1 14-14.1 10.5-26.1-7.4-25.4-21.2-47.6-35.3-69.6-2.4-3.7-3.9-3.8-6.7-.3-10.9 13.5-22.1 26.8-33.7 39.8-24.5 27.7-55.9 46.6-86 67.1-2.2 1.5-6.3 2.2-5.4 5.5 1.1 3.7 5.3 3 8.5 3.1.7 0 1.3-.1 2-.2 32.1-4.3 64.5-4.9 92.2-7.4zm-301.8-31.7c-1.1-.9-2.2-1.8-3.4-2.7-9.7-7.6-19.1-15.6-27.6-24.5-26.6-28-46.5-60.2-60.5-96.1-3-7.7-5.7-15.4-8-23.3-1.1-3.8-2.5-4-5.2-1.3-3.4 3.4-7 6.5-10.5 9.7-8.4 7.9-16.2 16.3-22.9 25.7-1.7 2.5-2 4.5 0 7 28.6 36.1 61 67.9 101.7 90.4 11.6 6.4 23.5 11.9 36.4 15.1zm187.6-1.8c.6-.1 1.4-.1 2.2-.3 1.6-.5 3.2-.9 4.7-1.5 19.5-8.9 38.1-19.2 55-32.4 23-18 40.6-41 58.7-63.5 2.3-2.9 1.4-4.9-.6-7.3-9.4-11.2-19.7-21.5-30.2-31.7-2.5-2.4-3.9-2.2-5.3 1.1-4.5 10.7-9.5 21.3-13.7 32.2-6.3 16.5-14.8 31.9-25.4 45.9-8.3 10.9-18.3 20.6-27.4 31-6.4 7.3-13.2 14.1-20.1 20.9-1.1 1.1-2.4 2.5-1.6 4.3.7 1.3 2.1 1.3 3.7 1.3zm182.6 174.9c-1.8.5-1.7 1.8-1.7 2.9-.5 12-1.2 23.9-1.2 35.9 0 9.4-1.8 18.6-3.2 27.8-.5 2.9-2.4 5.2-5.7 5.1-3.1 0-4.5-2.5-5.3-5.1-.7-2.2-1.1-4.5-1.5-6.7-2.5-15.2-1.5-30.5-1.7-45.7-.1-3.9-.1-7.9-.4-11.8-.1-1.9.1-4.5-2.5-4.7-2.5-.2-2.8 2.4-3.4 4.2-.7 2-1.2 4.1-1.5 6.2-4.3 31.5-3.6 63.2-1.9 94.8.1 1.1-.3 2.5 1.3 2.8 1.1.2 1.6-1 2.2-1.7 4.7-6.9 9.9-13.6 14.1-20.8 6.9-11.9 13.9-24 17.1-37.5 3.5-15-.3-29.7-3.6-44.3-.2-.6-.8-1-1.1-1.4z"/></svg>