<?xml version="1.0" encoding="utf-8"?>
<!-- Generator: Adobe Illustrator 23.0.6, SVG Export Plug-In . SVG Version: 6.00 Build 0)  -->
<svg version="1.1" id="Capa_1" xmlns="http://www.w3.org/2000/svg" xmlns:xlink="http://www.w3.org/1999/xlink" x="0px" y="0px"
	 viewBox="0 0 764.6 305.8" style="enable-background:new 0 0 764.6 305.8;" xml:space="preserve">
<style type="text/css">
	.st0{fill:#FFFDFD;}
</style>
<g>
	<path class="st0" d="M115.1,19.6L93,157.3L71.4,19.6H9.8v266.6h48.5V157.7l22,128.5h25.8l21.8-128.5v128.5h93.4l5.7-41h37.6l5.7,41
		l91.7,0.1h0.1v-0.1h0.1v-86.5l11.2-1.6l23.3,88.2H444l0-0.1h0.1l-30.5-103.4c15.5-11.4,33-40.3,28.3-68l0,0
		c0.1,0.3,28.8,171.5,28.8,171.5l56.4-0.2l38.5-241.6v241.6h91.5v-47.9h-43.4v-61.2h43.4v-48.7h-43.4V68.2h43.4V19.6H521.1
		l-22.4,162.4L476.5,19.6h-49.1l5.5,43.4c-5.7-11.1-25.8-43.4-70-43.4c-0.3,0-49.1,0-49.1,0l-0.2,236.7L277.9,19.6l-64.3,0
		l-37,245.2l0-245.2H115.1z M362,67.2c0.1,0,0.2,0,0.3,0c3.8,0,32.1,1.1,32.1,42.4c0,21.6-9.6,35.2-20.9,40.7l0,0
		c-3.7,1.8-7.6,2.7-11.4,2.7V67.2z M245.9,88.9l13.8,114h-27.1L245.9,88.9z"/>
	<polygon class="st0" points="665.5,19.5 665.5,286.1 754.8,286.1 754.8,238.2 713.6,238.2 713.6,19.5 	"/>
</g>
</svg>
